<?xml version="1.0" encoding="UTF-8"?>
<!DOCTYPE svg PUBLIC "-//W3C//DTD SVG 1.1//EN" "http://www.w3.org/Graphics/SVG/1.1/DTD/svg11.dtd">
<svg xmlns="http://www.w3.org/2000/svg" version="1.1" width="48px" height="48px" style="shape-rendering:geometricPrecision; text-rendering:geometricPrecision; image-rendering:optimizeQuality; fill-rule:evenodd; clip-rule:evenodd" xmlns:xlink="http://www.w3.org/1999/xlink">
<g><path style="opacity:1" fill="#26c6d9" d="M 36.5,27.5 C 36.8,22.9014 36.4667,18.4014 35.5,14C 32.9026,13.6517 30.9026,14.6517 29.5,17C 25.5138,17.4988 21.5138,17.6655 17.5,17.5C 16.155,14.4492 13.9883,13.4492 11,14.5C 10.501,18.8206 10.3343,23.1539 10.5,27.5C 9.5,27.5 8.5,27.5 7.5,27.5C 7.5,22.8333 7.5,18.1667 7.5,13.5C 8.5,13.5 9.5,13.5 10.5,13.5C 10.5,12.5 10.5,11.5 10.5,10.5C 13.8333,10.5 17.1667,10.5 20.5,10.5C 20.5,11.5 20.5,12.5 20.5,13.5C 22.5,13.5 24.5,13.5 26.5,13.5C 26.5,12.5 26.5,11.5 26.5,10.5C 29.8333,10.5 33.1667,10.5 36.5,10.5C 36.5,11.5 36.5,12.5 36.5,13.5C 37.5,13.5 38.5,13.5 39.5,13.5C 39.5,18.1667 39.5,22.8333 39.5,27.5C 38.5,27.5 37.5,27.5 36.5,27.5 Z"/></g>
<g><path style="opacity:1" fill="#cad0ec" d="M 36.5,27.5 C 36.5,28.1667 36.5,28.8333 36.5,29.5C 34.7175,30.1135 33.3841,31.2802 32.5,33C 26.3188,33.8192 20.3188,33.6525 14.5,32.5C 17.1692,29.3231 16.1692,27.9897 11.5,28.5C 11.3343,24.1539 11.501,19.8206 12,15.5C 13.5843,16.8613 15.4176,17.528 17.5,17.5C 21.5138,17.6655 25.5138,17.4988 29.5,17C 30.9026,14.6517 32.9026,13.6517 35.5,14C 36.4667,18.4014 36.8,22.9014 36.5,27.5 Z"/></g>
<g><path style="opacity:1" fill="#26c6d9" d="M 16.5,21.5 C 17.8333,21.5 19.1667,21.5 20.5,21.5C 20.5,23.5 20.5,25.5 20.5,27.5C 18.5,27.5 16.5,27.5 14.5,27.5C 14.6138,25.2821 15.2804,23.2821 16.5,21.5 Z"/></g>
<g><path style="opacity:1" fill="#26c6d9" d="M 26.5,21.5 C 30.5,21.5 32.5,23.5 32.5,27.5C 30.5,27.5 28.5,27.5 26.5,27.5C 26.5,25.5 26.5,23.5 26.5,21.5 Z"/></g>
<g><path style="opacity:1" fill="#bac4e6" d="M 17.5,17.5 C 15.4176,17.528 13.5843,16.8613 12,15.5C 11.501,19.8206 11.3343,24.1539 11.5,28.5C 16.1692,27.9897 17.1692,29.3231 14.5,32.5C 13.4739,31.147 12.1405,30.147 10.5,29.5C 10.5,28.8333 10.5,28.1667 10.5,27.5C 10.3343,23.1539 10.501,18.8206 11,14.5C 13.9883,13.4492 16.155,14.4492 17.5,17.5 Z"/></g>
<g><path style="opacity:1" fill="#26c6d9" d="M 10.5,29.5 C 12.1405,30.147 13.4739,31.147 14.5,32.5C 20.3188,33.6525 26.3188,33.8192 32.5,33C 33.3841,31.2802 34.7175,30.1135 36.5,29.5C 36.5,30.8333 36.5,32.1667 36.5,33.5C 35.5,33.5 34.5,33.5 33.5,33.5C 33.5,34.5 33.5,35.5 33.5,36.5C 26.8333,36.5 20.1667,36.5 13.5,36.5C 13.5,35.5 13.5,34.5 13.5,33.5C 12.5,33.5 11.5,33.5 10.5,33.5C 10.5,32.1667 10.5,30.8333 10.5,29.5 Z"/></g>
</svg>
