<?xml version="1.0" encoding="UTF-8"?>
<!DOCTYPE svg PUBLIC "-//W3C//DTD SVG 1.1//EN" "http://www.w3.org/Graphics/SVG/1.1/DTD/svg11.dtd">
<svg xmlns="http://www.w3.org/2000/svg" version="1.1" width="48px" height="48px" style="shape-rendering:geometricPrecision; text-rendering:geometricPrecision; image-rendering:optimizeQuality; fill-rule:evenodd; clip-rule:evenodd" xmlns:xlink="http://www.w3.org/1999/xlink">
<g><path style="opacity:1" fill="#6cdcfa" d="M 29.5,10.5 C 29.5,11.5 29.5,12.5 29.5,13.5C 27.5,13.5 25.5,13.5 23.5,13.5C 23.5,12.5 23.5,11.5 23.5,10.5C 25.5,10.5 27.5,10.5 29.5,10.5 Z"/></g>
<g><path style="opacity:0.878" fill="#6ea6cc" d="M 29.5,10.5 C 30.404,11.209 30.7373,12.209 30.5,13.5C 32.7354,13.2053 34.7354,13.5386 36.5,14.5C 35.1667,14.5 33.8333,14.5 32.5,14.5C 31.5,14.5 30.5,14.5 29.5,14.5C 29.5,14.1667 29.5,13.8333 29.5,13.5C 29.5,12.5 29.5,11.5 29.5,10.5 Z"/></g>
<g><path style="opacity:0.996" fill="#abecfb" d="M 23.5,13.5 C 25.5,13.5 27.5,13.5 29.5,13.5C 29.5,13.8333 29.5,14.1667 29.5,14.5C 27.5,14.5 25.5,14.5 23.5,14.5C 23.5,15.5 23.5,16.5 23.5,17.5C 22.5,17.5 21.5,17.5 20.5,17.5C 20.5,16.5 20.5,15.5 20.5,14.5C 21.209,13.596 22.209,13.2627 23.5,13.5 Z"/></g>
<g><path style="opacity:0.798" fill="#f5fbfe" d="M 29.5,14.5 C 30.5,14.5 31.5,14.5 32.5,14.5C 32.5,15.5 32.5,16.5 32.5,17.5C 36.0048,17.6941 36.3382,18.6941 33.5,20.5C 33.5,22.5 33.5,24.5 33.5,26.5C 32.596,27.209 32.2627,28.209 32.5,29.5C 31.5,29.5 30.5,29.5 29.5,29.5C 28.5,29.5 27.5,29.5 26.5,29.5C 26.5,30.5 26.5,31.5 26.5,32.5C 23.5,32.5 20.5,32.5 17.5,32.5C 16.5,32.5 15.5,32.5 14.5,32.5C 14.7947,30.2646 14.4614,28.2646 13.5,26.5C 13.5,25.5 13.5,24.5 13.5,23.5C 12.5,23.5 11.5,23.5 10.5,23.5C 10.5,21.5 10.5,19.5 10.5,17.5C 11.5,17.5 12.5,17.5 13.5,17.5C 13.5,18.5 13.5,19.5 13.5,20.5C 15.8333,20.5 18.1667,20.5 20.5,20.5C 20.5,19.5 20.5,18.5 20.5,17.5C 21.5,17.5 22.5,17.5 23.5,17.5C 23.5,16.5 23.5,15.5 23.5,14.5C 25.5,14.5 27.5,14.5 29.5,14.5 Z"/></g>
<g><path style="opacity:1" fill="#4893c2" d="M 7.5,14.5 C 9.60737,13.5318 11.9407,13.1984 14.5,13.5C 14.5,14.5 14.5,15.5 14.5,16.5C 16.8863,16.7413 18.8863,16.0746 20.5,14.5C 20.5,15.5 20.5,16.5 20.5,17.5C 18.1667,17.5 15.8333,17.5 13.5,17.5C 13.5,16.5 13.5,15.5 13.5,14.5C 11.5,14.5 9.5,14.5 7.5,14.5 Z"/></g>
<g><path style="opacity:0.922" fill="#ade9f9" d="M 32.5,14.5 C 33.8333,14.5 35.1667,14.5 36.5,14.5C 36.5,16.5 36.5,18.5 36.5,20.5C 35.5,20.5 34.5,20.5 33.5,20.5C 36.3382,18.6941 36.0048,17.6941 32.5,17.5C 32.5,16.5 32.5,15.5 32.5,14.5 Z"/></g>
<g><path style="opacity:1" fill="#6ddefd" d="M 7.5,14.5 C 9.5,14.5 11.5,14.5 13.5,14.5C 13.5,15.5 13.5,16.5 13.5,17.5C 12.5,17.5 11.5,17.5 10.5,17.5C 10.5,19.5 10.5,21.5 10.5,23.5C 9.5,23.5 8.5,23.5 7.5,23.5C 7.5,20.5 7.5,17.5 7.5,14.5 Z"/></g>
<g><path style="opacity:0.961" fill="#8ce7fe" d="M 13.5,17.5 C 15.8333,17.5 18.1667,17.5 20.5,17.5C 20.5,18.5 20.5,19.5 20.5,20.5C 18.1667,20.5 15.8333,20.5 13.5,20.5C 13.5,19.5 13.5,18.5 13.5,17.5 Z"/></g>
<g><path style="opacity:1" fill="#7cd4f7" d="M 33.5,20.5 C 34.5,20.5 35.5,20.5 36.5,20.5C 36.5,22.5 36.5,24.5 36.5,26.5C 35.5,26.5 34.5,26.5 33.5,26.5C 33.5,24.5 33.5,22.5 33.5,20.5 Z"/></g>
<g><path style="opacity:1" fill="#84d0f6" d="M 10.5,23.5 C 11.5,23.5 12.5,23.5 13.5,23.5C 13.5,24.5 13.5,25.5 13.5,26.5C 12.5,26.5 11.5,26.5 10.5,26.5C 10.5,25.5 10.5,24.5 10.5,23.5 Z"/></g>
<g><path style="opacity:1" fill="#4d96c9" d="M 33.5,26.5 C 33.5,28.8333 33.5,31.1667 33.5,33.5C 32.5,33.5 31.5,33.5 30.5,33.5C 30.7373,34.791 30.404,35.791 29.5,36.5C 29.5,35.5 29.5,34.5 29.5,33.5C 29.5,33.1667 29.5,32.8333 29.5,32.5C 30.5,32.5 31.5,32.5 32.5,32.5C 32.5,31.5 32.5,30.5 32.5,29.5C 32.2627,28.209 32.596,27.209 33.5,26.5 Z"/></g>
<g><path style="opacity:1" fill="#63cbf7" d="M 29.5,29.5 C 30.5,29.5 31.5,29.5 32.5,29.5C 32.5,30.5 32.5,31.5 32.5,32.5C 31.5,32.5 30.5,32.5 29.5,32.5C 29.5,31.5 29.5,30.5 29.5,29.5 Z"/></g>
<g><path style="opacity:0.878" fill="#b7dff9" d="M 29.5,29.5 C 29.5,30.5 29.5,31.5 29.5,32.5C 29.5,32.8333 29.5,33.1667 29.5,33.5C 25.2984,33.8168 21.2984,33.4834 17.5,32.5C 20.5,32.5 23.5,32.5 26.5,32.5C 26.5,31.5 26.5,30.5 26.5,29.5C 27.5,29.5 28.5,29.5 29.5,29.5 Z"/></g>
<g><path style="opacity:1" fill="#63aee2" d="M 13.5,26.5 C 14.4614,28.2646 14.7947,30.2646 14.5,32.5C 15.5,32.5 16.5,32.5 17.5,32.5C 21.2984,33.4834 25.2984,33.8168 29.5,33.5C 29.5,34.5 29.5,35.5 29.5,36.5C 25.1667,36.5 20.8333,36.5 16.5,36.5C 16.5,35.5 16.5,34.5 16.5,33.5C 15.5,33.5 14.5,33.5 13.5,33.5C 13.5,31.1667 13.5,28.8333 13.5,26.5 Z"/></g>
</svg>
